<svg version="1" xmlns="http://www.w3.org/2000/svg" width="238.667" height="238.667" viewBox="0 0 179.000000 179.000000"><path d="M46.4 11.8c-.7.4-3.5 12.6-6.3 27.2s-6 30.8-7.1 36c-1.1 5.2-2.9 14.2-3.9 20-1.1 5.8-3.6 18.1-5.7 27.5-4.6 21.5-5.2 27.6-3 31 1.8 2.7 5.3 3.3 8.7 1.5 1-.6 3-3.2 4.4-5.9 2.3-4.6 3.4-10.1 9.6-46.1 3-17.7 7.5-40.2 10.9-54.4C57.7 32.7 60 29 68.5 25c8.6-4.1 18-1.5 21.7 6 3.5 6.9 2.6 15.5-5.6 54.5-6.2 29.4-7.4 34.7-10.1 44.8-1.8 6.7-2.5 11.3-2.1 14.5.2 2.7-.1 6.3-1 8.7-2.7 7.7-1.5 11.5 3.8 11.5 3.5 0 5.3-2.6 7.9-12.1 1.8-6.4 7.5-33.8 9.8-46.4.4-2.3 1.1-4.7 1.6-5.5.6-.8 1-4.7 1.1-8.5 0-3.9.6-9.9 1.3-13.5 2.3-12.7 3.1-17.6 4-24.7 1.3-9.9 4.4-16.5 9.6-20.8 9.4-7.6 17.7-7.5 25.8.3 7.3 7.1 8 16.4 2.7 37.7-5.6 23-13.2 65.5-13.4 75.5-.2 12.6 4.7 19 14.7 19 5.9 0 9-1.6 14.3-7.2 7.8-8.3 8.7-11.2 5-14.7l-2.3-2.1-3.1 4.9c-6.2 9.6-12.6 13.1-18.3 10.1-1.6-.9-1.9-2.2-1.9-8 0-3.8.4-9.1.9-11.7.5-2.6 1.4-8.2 2.1-12.3 1.4-8.8 7.9-40.8 11.5-56.5 4.7-20.7 3.1-31.1-6.5-40.6-6.9-7-13.8-9.5-21.9-7.9-6.3 1.2-12.6 4.3-16.7 8.2l-3.1 2.9-1.3-3c-1.5-3.6-8.9-10.7-12.8-12.2-3.6-1.4-15.1-1.4-16.5 0-.6.6-1.9 1.1-2.8 1.1-1.8 0-10.5 4.6-11.4 6.1-1.4 2.2-2.2.6-1.4-2.9.5-2 .9-4.9.9-6.5 0-2.5-.3-2.7-3.7-2.7-2.1 0-4.3.4-4.9.8z"/></svg>